<svg width="60.000000" height="60.000000" viewBox="0 0 60 60" fill="none" xmlns="http://www.w3.org/2000/svg" xmlns:xlink="http://www.w3.org/1999/xlink">
	<desc>
			Created with Pixso.
	</desc>
	<defs/>
	<g opacity="0.300000">
		<circle id="Ellipse 8" cx="30.000000" cy="30.000000" r="29.500000" stroke="#282B22" stroke-opacity="1.000000" stroke-width="1.000000"/>
	</g>
	<path id="01" d="M30.512 31.44C30.512 32.848 30.24 34.104 29.696 35.208C29.168 36.296 28.44 37.152 27.512 37.776C26.584 38.4 25.536 38.712 24.368 38.712C23.184 38.712 22.128 38.4 21.2 37.776C20.288 37.152 19.56 36.296 19.016 35.208C18.488 34.104 18.224 32.848 18.224 31.44C18.224 30.032 18.488 28.784 19.016 27.696C19.56 26.592 20.288 25.728 21.2 25.104C22.128 24.464 23.184 24.144 24.368 24.144C25.536 24.144 26.584 24.464 27.512 25.104C28.44 25.728 29.168 26.592 29.696 27.696C30.24 28.784 30.512 30.032 30.512 31.44ZM27.824 31.44C27.824 30.48 27.672 29.64 27.368 28.92C27.08 28.184 26.672 27.616 26.144 27.216C25.632 26.8 25.04 26.592 24.368 26.592C23.68 26.592 23.072 26.8 22.544 27.216C22.016 27.616 21.6 28.184 21.296 28.92C21.008 29.64 20.864 30.48 20.864 31.44C20.864 32.88 21.184 34.048 21.824 34.944C22.48 35.824 23.328 36.264 24.368 36.264C25.04 36.264 25.632 36.064 26.144 35.664C26.672 35.264 27.08 34.704 27.368 33.984C27.672 33.248 27.824 32.4 27.824 31.44ZM42.4702 36.096L42.4702 38.472L33.3022 38.472L33.3022 36.096L36.7102 36.096L36.7102 27.72C36.5342 27.96 36.2142 28.224 35.7502 28.512C35.2862 28.8 34.7822 29.04 34.2382 29.232C33.7102 29.424 33.2382 29.52 32.8222 29.52L32.8222 27.048C33.1422 27.048 33.5102 26.952 33.9262 26.76C34.3422 26.568 34.7502 26.344 35.1502 26.088C35.5662 25.816 35.9182 25.56 36.2062 25.32C36.4942 25.064 36.6622 24.88 36.7102 24.768L39.4222 24.768L39.4222 36.096L42.4702 36.096Z" fill="#3D4A39" fill-opacity="1.000000" fill-rule="evenodd"/>
</svg>
