<svg width="60.000000" height="60.000000" viewBox="0 0 60 60" fill="none" xmlns="http://www.w3.org/2000/svg" xmlns:xlink="http://www.w3.org/1999/xlink">
	<desc>
			Created with Pixso.
	</desc>
	<defs/>
	<g opacity="0.300000">
		<circle id="Ellipse 8" cx="30.000000" cy="30.000000" r="29.500000" stroke="#282B22" stroke-opacity="1.000000" stroke-width="1.000000"/>
	</g>
	<path id="02" d="M30.512 31.44C30.512 32.848 30.24 34.104 29.696 35.208C29.168 36.296 28.44 37.152 27.512 37.776C26.584 38.4 25.536 38.712 24.368 38.712C23.184 38.712 22.128 38.4 21.2 37.776C20.288 37.152 19.56 36.296 19.016 35.208C18.488 34.104 18.224 32.848 18.224 31.44C18.224 30.032 18.488 28.784 19.016 27.696C19.56 26.592 20.288 25.728 21.2 25.104C22.128 24.464 23.184 24.144 24.368 24.144C25.536 24.144 26.584 24.464 27.512 25.104C28.44 25.728 29.168 26.592 29.696 27.696C30.24 28.784 30.512 30.032 30.512 31.44ZM27.824 31.44C27.824 30.48 27.672 29.64 27.368 28.92C27.08 28.184 26.672 27.616 26.144 27.216C25.632 26.8 25.04 26.592 24.368 26.592C23.68 26.592 23.072 26.8 22.544 27.216C22.016 27.616 21.6 28.184 21.296 28.92C21.008 29.64 20.864 30.48 20.864 31.44C20.864 32.88 21.184 34.048 21.824 34.944C22.48 35.824 23.328 36.264 24.368 36.264C25.04 36.264 25.632 36.064 26.144 35.664C26.672 35.264 27.08 34.704 27.368 33.984C27.672 33.248 27.824 32.4 27.824 31.44ZM32.7022 38.472C32.7022 37.576 32.8062 36.768 33.0142 36.048C33.2382 35.312 33.6222 34.64 34.1662 34.032C34.7262 33.408 35.5262 32.808 36.5662 32.232C37.3022 31.816 37.9822 31.448 38.6062 31.128C39.2462 30.792 39.7502 30.448 40.1182 30.096C40.5022 29.744 40.6942 29.328 40.6942 28.848C40.6942 28.336 40.4702 27.88 40.0222 27.48C39.5902 27.064 38.9662 26.856 38.1502 26.856C37.2862 26.856 36.5582 27.064 35.9662 27.48C35.3742 27.88 34.9022 28.288 34.5502 28.704L32.8942 26.808C33.1182 26.568 33.4942 26.272 34.0222 25.92C34.5502 25.552 35.1982 25.232 35.9662 24.96C36.7502 24.672 37.6302 24.528 38.6062 24.528C40.1422 24.528 41.3502 24.904 42.2302 25.656C43.1102 26.408 43.5502 27.352 43.5502 28.488C43.5502 29.272 43.3502 29.944 42.9502 30.504C42.5502 31.048 42.0702 31.504 41.5102 31.872C40.9662 32.24 40.4622 32.544 39.9982 32.784C39.1662 33.2 38.4782 33.568 37.9342 33.888C37.4062 34.208 36.9822 34.536 36.6622 34.872C36.3422 35.208 36.0862 35.616 35.8942 36.096L43.8142 36.096L43.8142 38.472L32.7022 38.472Z" fill="#3D4A39" fill-opacity="1.000000" fill-rule="evenodd"/>
</svg>
