<svg width="60.000000" height="60.000000" viewBox="0 0 60 60" fill="none" xmlns="http://www.w3.org/2000/svg" xmlns:xlink="http://www.w3.org/1999/xlink">
	<desc>
			Created with Pixso.
	</desc>
	<defs/>
	<g opacity="0.300000">
		<circle id="Ellipse 8" cx="30.000000" cy="30.000000" r="29.500000" stroke="#282B22" stroke-opacity="1.000000" stroke-width="1.000000"/>
	</g>
	<path id="03" d="M29.512 29.44C29.512 30.848 29.24 32.104 28.696 33.208C28.168 34.296 27.44 35.152 26.512 35.776C25.584 36.4 24.536 36.712 23.368 36.712C22.184 36.712 21.128 36.4 20.2 35.776C19.288 35.152 18.56 34.296 18.016 33.208C17.488 32.104 17.224 30.848 17.224 29.44C17.224 28.032 17.488 26.784 18.016 25.696C18.56 24.592 19.288 23.728 20.2 23.104C21.128 22.464 22.184 22.144 23.368 22.144C24.536 22.144 25.584 22.464 26.512 23.104C27.44 23.728 28.168 24.592 28.696 25.696C29.24 26.784 29.512 28.032 29.512 29.44ZM26.824 29.44C26.824 28.48 26.672 27.64 26.368 26.92C26.08 26.184 25.672 25.616 25.144 25.216C24.632 24.8 24.04 24.592 23.368 24.592C22.68 24.592 22.072 24.8 21.544 25.216C21.016 25.616 20.6 26.184 20.296 26.92C20.008 27.64 19.864 28.48 19.864 29.44C19.864 30.88 20.184 32.048 20.824 32.944C21.48 33.824 22.328 34.264 23.368 34.264C24.04 34.264 24.632 34.064 25.144 33.664C25.672 33.264 26.08 32.704 26.368 31.984C26.672 31.248 26.824 30.4 26.824 29.44ZM39.5982 30.808C40.6062 30.984 41.4142 31.464 42.0222 32.248C42.6302 33.016 42.9342 33.96 42.9342 35.08C42.9342 36.072 42.6862 36.936 42.1902 37.672C41.6942 38.408 40.9982 38.976 40.1022 39.376C39.2222 39.792 38.1742 40 36.9582 40C35.7422 40 34.6702 39.784 33.7422 39.352C32.8142 38.936 32.0702 38.328 31.5102 37.528L33.1182 35.704C33.5022 36.296 33.9982 36.76 34.6062 37.096C35.2142 37.432 35.9822 37.6 36.9102 37.6C37.9502 37.6 38.7582 37.376 39.3342 36.928C39.9102 36.48 40.1982 35.808 40.1982 34.912C40.1982 33.984 39.8782 33.256 39.2382 32.728C38.5982 32.2 37.6542 31.936 36.4062 31.936L35.7582 31.936L35.7582 29.872L36.4782 29.872C37.5502 29.872 38.3742 29.624 38.9502 29.128C39.5262 28.616 39.8142 27.976 39.8142 27.208C39.8142 26.456 39.5502 25.896 39.0222 25.528C38.5102 25.16 37.8542 24.976 37.0542 24.976C36.2382 24.976 35.5182 25.152 34.8942 25.504C34.2702 25.856 33.7742 26.36 33.4062 27.016L31.7502 25.216C32.2142 24.448 32.9502 23.832 33.9582 23.368C34.9822 22.888 36.1022 22.648 37.3182 22.648C38.3742 22.648 39.2942 22.824 40.0782 23.176C40.8782 23.528 41.5022 24.024 41.9502 24.664C42.3982 25.304 42.6222 26.056 42.6222 26.92C42.6222 27.864 42.3502 28.712 41.8062 29.464C41.2622 30.2 40.5262 30.648 39.5982 30.808Z" fill="#3D4A39" fill-opacity="1.000000" fill-rule="evenodd"/>
</svg>
