<svg width="60.000000" height="60.000000" viewBox="0 0 60 60" fill="none" xmlns="http://www.w3.org/2000/svg" xmlns:xlink="http://www.w3.org/1999/xlink">
	<desc>
			Created with Pixso.
	</desc>
	<defs/>
	<g opacity="0.300000">
		<circle id="Ellipse 8" cx="30.000000" cy="30.000000" r="29.500000" stroke="#282B22" stroke-opacity="1.000000" stroke-width="1.000000"/>
	</g>
	<path id="04" d="M28.512 29.44C28.512 30.848 28.24 32.104 27.696 33.208C27.168 34.296 26.44 35.152 25.512 35.776C24.584 36.4 23.536 36.712 22.368 36.712C21.184 36.712 20.128 36.4 19.2 35.776C18.288 35.152 17.56 34.296 17.016 33.208C16.488 32.104 16.224 30.848 16.224 29.44C16.224 28.032 16.488 26.784 17.016 25.696C17.56 24.592 18.288 23.728 19.2 23.104C20.128 22.464 21.184 22.144 22.368 22.144C23.536 22.144 24.584 22.464 25.512 23.104C26.44 23.728 27.168 24.592 27.696 25.696C28.24 26.784 28.512 28.032 28.512 29.44ZM25.824 29.44C25.824 28.48 25.672 27.64 25.368 26.92C25.08 26.184 24.672 25.616 24.144 25.216C23.632 24.8 23.04 24.592 22.368 24.592C21.68 24.592 21.072 24.8 20.544 25.216C20.016 25.616 19.6 26.184 19.296 26.92C19.008 27.64 18.864 28.48 18.864 29.44C18.864 30.88 19.184 32.048 19.824 32.944C20.48 33.824 21.328 34.264 22.368 34.264C23.04 34.264 23.632 34.064 24.144 33.664C24.672 33.264 25.08 32.704 25.368 31.984C25.672 31.248 25.824 30.4 25.824 29.44ZM37.6382 39.52L37.6382 35.704L30.2702 35.704L30.2702 33.352L38.4782 22.768L40.2782 22.768L40.2782 33.304L42.3902 33.304L42.3902 35.704L40.2782 35.704L40.2782 39.52L37.6382 39.52ZM32.9582 33.304L37.9262 33.304L37.9262 26.8L32.9582 33.304Z" fill="#3D4A39" fill-opacity="1.000000" fill-rule="evenodd"/>
</svg>
