<svg width="131.000000" height="24.000000" viewBox="0 0 131 24" fill="none" xmlns="http://www.w3.org/2000/svg" xmlns:xlink="http://www.w3.org/1999/xlink">
	<desc>
			Created with Pixso.
	</desc>
	<defs>
		<clipPath id="clip227_180">
			<rect id="brandico:facebook" width="10.000000" height="20.574566" transform="translate(121.000000 0.000000)" fill="white" fill-opacity="0"/>
		</clipPath>
		<clipPath id="clip227_182">
			<rect id="bx:bxl-instagram-alt" width="24.000000" height="24.000000" transform="translate(90.000000 0.000000)" fill="white" fill-opacity="0"/>
		</clipPath>
	</defs>
	<rect id="brandico:facebook" width="10.000000" height="20.574566" transform="translate(121.000000 0.000000)" fill="#FFFFFF" fill-opacity="0"/>
	<g clip-path="url(#clip227_180)">
		<path id="Vector" d="M123.553 20.5742L123.553 10.9199L121 10.9199L121 7.44434L123.553 7.44434L123.553 4.47559C123.553 2.14258 125.061 0 128.535 0C129.942 0 130.982 0.134766 130.982 0.134766L130.9 3.38086C130.9 3.38086 129.839 3.37012 128.682 3.37012C127.429 3.37012 127.228 3.94824 127.228 4.90625L127.228 7.44434L131 7.44434L130.836 10.9199L127.228 10.9199L127.228 20.5742L123.553 20.5742Z" fill="#AE7B3C" fill-opacity="1.000000" fill-rule="nonzero"/>
	</g>
	<rect id="bx:bxl-instagram-alt" width="24.000000" height="24.000000" transform="translate(90.000000 0.000000)" fill="#FFFFFF" fill-opacity="0"/>
	<g clip-path="url(#clip227_182)">
		<path id="Vector" d="M110.947 8.30566C110.937 7.54785 110.795 6.79785 110.528 6.08984C110.296 5.49121 109.943 4.94824 109.489 4.49512C109.036 4.04199 108.493 3.68848 107.895 3.45605C107.195 3.19336 106.456 3.05176 105.709 3.03613C104.747 2.99316 104.442 2.98145 102 2.98145C99.558 2.98145 99.245 2.98145 98.29 3.03613C97.5432 3.05176 96.8044 3.19434 96.105 3.45605C95.5071 3.6875 94.964 4.04199 94.5107 4.49512C94.0573 4.94824 93.7035 5.49121 93.472 6.08984C93.2088 6.78906 93.0671 7.52734 93.053 8.27441C93.01 9.2373 92.997 9.54199 92.997 11.9844C92.997 14.4268 92.997 14.7383 93.053 15.6943C93.068 16.4424 93.209 17.1807 93.472 17.8818C93.7039 18.4795 94.0579 19.0225 94.5114 19.4756C94.965 19.9287 95.5081 20.2822 96.106 20.5137C96.8034 20.7871 97.5424 20.9385 98.291 20.9639C99.254 21.0068 99.559 21.0195 102.001 21.0195C104.443 21.0195 104.756 21.0195 105.711 20.9639C106.458 20.9492 107.197 20.8066 107.897 20.5449C108.495 20.3125 109.038 19.959 109.491 19.5049C109.944 19.0518 110.298 18.5088 110.53 17.9111C110.793 17.2119 110.934 16.4736 110.949 15.7246C110.992 14.7627 111.005 14.457 111.005 12.0146C111.003 9.57227 111.003 9.2627 110.947 8.30566ZM101.994 16.6025C99.44 16.6025 97.371 14.5332 97.371 11.9795C97.371 9.42578 99.44 7.35645 101.994 7.35645C103.22 7.35645 104.396 7.84375 105.263 8.71094C106.13 9.57715 106.617 10.7529 106.617 11.9795C106.617 13.2051 106.13 14.3818 105.263 15.248C104.396 16.1152 103.22 16.6025 101.994 16.6025ZM106.801 8.26367C106.659 8.26367 106.519 8.23535 106.388 8.18164C106.257 8.12793 106.139 8.04785 106.038 7.94824C105.938 7.84766 105.859 7.72852 105.805 7.59766C105.751 7.4668 105.723 7.32715 105.723 7.18555C105.723 7.04395 105.751 6.9043 105.805 6.77344C105.859 6.64258 105.939 6.52344 106.039 6.42383C106.139 6.32324 106.257 6.24414 106.388 6.19043C106.519 6.13574 106.659 6.1084 106.801 6.1084C106.942 6.1084 107.082 6.13574 107.213 6.19043C107.344 6.24414 107.462 6.32324 107.562 6.42383C107.662 6.52344 107.742 6.64258 107.796 6.77344C107.85 6.9043 107.878 7.04395 107.878 7.18555C107.878 7.78125 107.396 8.26367 106.801 8.26367Z" fill="#AE7B3C" fill-opacity="1.000000" fill-rule="nonzero"/>
		<path id="Vector" d="M104.997 11.9785C104.997 13.6367 103.652 14.9814 101.994 14.9814C100.335 14.9814 98.991 13.6367 98.991 11.9785C98.991 10.3203 100.335 8.97559 101.994 8.97559C103.652 8.97559 104.997 10.3203 104.997 11.9785Z" fill="#AE7B3C" fill-opacity="1.000000" fill-rule="evenodd"/>
	</g>
	<g opacity="0.500000">
		<path id="Соцмережі:" d="M0.546 11.902C0.546 11.2953 0.648667 10.7027 0.854 10.124C1.06867 9.536 1.37667 9.004 1.778 8.528C2.18867 8.04267 2.688 7.66 3.276 7.38C3.864 7.09067 4.53133 6.946 5.278 6.946C6.16467 6.946 6.92533 7.15133 7.56 7.562C8.19467 7.96333 8.666 8.48133 8.974 9.116L7.98 9.76C7.784 9.34 7.532 9.00867 7.224 8.766C6.92533 8.514 6.59867 8.33667 6.244 8.234C5.89867 8.13133 5.558 8.08 5.222 8.08C4.67133 8.08 4.18133 8.192 3.752 8.416C3.332 8.64 2.97733 8.93867 2.688 9.312C2.39867 9.68533 2.17933 10.1053 2.03 10.572C1.89 11.0293 1.82 11.4913 1.82 11.958C1.82 12.4713 1.904 12.966 2.072 13.442C2.24933 13.918 2.492 14.338 2.8 14.702C3.108 15.066 3.472 15.3553 3.892 15.57C4.312 15.7847 4.76933 15.892 5.264 15.892C5.60933 15.892 5.964 15.8313 6.328 15.71C6.692 15.5887 7.03267 15.402 7.35 15.15C7.66733 14.8887 7.91933 14.5527 8.106 14.142L9.156 14.716C8.95067 15.2107 8.63333 15.6307 8.204 15.976C7.77467 16.3213 7.294 16.5827 6.762 16.76C6.23933 16.9373 5.72133 17.026 5.208 17.026C4.52667 17.026 3.90133 16.8813 3.332 16.592C2.76267 16.2933 2.268 15.9013 1.848 15.416C1.43733 14.9213 1.11533 14.3707 0.882 13.764C0.658 13.148 0.546 12.5273 0.546 11.902ZM13.729 17.082C13.001 17.082 12.357 16.9093 11.797 16.564C11.2463 16.2093 10.817 15.7473 10.509 15.178C10.201 14.5993 10.047 13.974 10.047 13.302C10.047 12.6207 10.201 11.9953 10.509 11.426C10.8263 10.8473 11.2603 10.3853 11.811 10.04C12.371 9.68533 13.0103 9.508 13.729 9.508C14.457 9.508 15.0963 9.68533 15.647 10.04C16.207 10.3853 16.641 10.8473 16.949 11.426C17.2663 11.9953 17.425 12.6207 17.425 13.302C17.425 13.974 17.2663 14.5993 16.949 15.178C16.641 15.7473 16.2116 16.2093 15.661 16.564C15.1103 16.9093 14.4663 17.082 13.729 17.082ZM11.307 13.316C11.307 13.82 11.4143 14.2773 11.629 14.688C11.853 15.0987 12.147 15.4253 12.511 15.668C12.875 15.9013 13.281 16.018 13.729 16.018C14.177 16.018 14.583 15.8967 14.947 15.654C15.3203 15.4113 15.6143 15.0847 15.829 14.674C16.053 14.254 16.165 13.792 16.165 13.288C16.165 12.784 16.053 12.3267 15.829 11.916C15.6143 11.5053 15.3203 11.1787 14.947 10.936C14.583 10.6933 14.177 10.572 13.729 10.572C13.281 10.572 12.875 10.698 12.511 10.95C12.147 11.1927 11.853 11.5193 11.629 11.93C11.4143 12.3407 11.307 12.8027 11.307 13.316ZM24.6718 18.664L24.6718 16.942L18.9038 16.942L18.9038 9.634L20.1358 9.634L20.1358 15.864L23.5238 15.864L23.5238 9.634L24.7558 9.634L24.7558 15.864L25.7638 15.864L25.7638 18.664L24.6718 18.664ZM27.1206 16.942L27.1206 9.634L28.3946 9.634L31.1106 14.422L33.8406 9.634L35.0866 9.634L35.0866 16.942L33.9106 16.942L33.9106 11.412L31.5026 15.64L30.7186 15.64L28.2966 11.412L28.2966 16.942L27.1206 16.942ZM40.3081 17.082C39.5801 17.082 38.9361 16.9093 38.3761 16.564C37.8161 16.2187 37.3774 15.7567 37.0601 15.178C36.7427 14.5993 36.5841 13.9693 36.5841 13.288C36.5841 12.5973 36.7427 11.9673 37.0601 11.398C37.3774 10.8287 37.8161 10.3713 38.3761 10.026C38.9454 9.68067 39.5941 9.508 40.3221 9.508C41.0594 9.508 41.6987 9.68533 42.2401 10.04C42.7907 10.3853 43.2154 10.8427 43.5141 11.412C43.8221 11.972 43.9761 12.5787 43.9761 13.232C43.9761 13.4373 43.9667 13.596 43.9481 13.708L37.8861 13.708C37.9234 14.184 38.0541 14.6087 38.2781 14.982C38.5114 15.346 38.8101 15.6353 39.1741 15.85C39.5381 16.0553 39.9301 16.158 40.3501 16.158C40.7981 16.158 41.2181 16.046 41.6101 15.822C42.0114 15.598 42.2867 15.304 42.4361 14.94L43.5001 15.234C43.2667 15.7753 42.8607 16.2187 42.2821 16.564C41.7034 16.9093 41.0454 17.082 40.3081 17.082ZM37.8441 12.854L42.8281 12.854C42.7907 12.378 42.6554 11.958 42.4221 11.594C42.1887 11.23 41.8901 10.9453 41.5261 10.74C41.1621 10.5347 40.7607 10.432 40.3221 10.432C39.8927 10.432 39.4961 10.5347 39.1321 10.74C38.7681 10.9453 38.4694 11.23 38.2361 11.594C38.0121 11.958 37.8814 12.378 37.8441 12.854ZM49.2796 17.082C48.6822 17.082 48.1502 16.9327 47.6836 16.634C47.2169 16.3353 46.8482 15.9573 46.5776 15.5L46.5776 19.924L45.3456 19.924L45.3456 9.634L46.4376 9.634L46.4376 11.006C46.7269 10.558 47.1049 10.1987 47.5716 9.928C48.0382 9.648 48.5469 9.508 49.0976 9.508C49.6016 9.508 50.0636 9.61067 50.4836 9.816C50.9036 10.0213 51.2676 10.3013 51.5756 10.656C51.8836 11.0107 52.1216 11.4167 52.2896 11.874C52.4669 12.322 52.5556 12.7933 52.5556 13.288C52.5556 13.9787 52.4156 14.6133 52.1356 15.192C51.8649 15.7707 51.4822 16.2327 50.9876 16.578C50.4929 16.914 49.9236 17.082 49.2796 17.082ZM48.9016 16.018C49.3869 16.018 49.8069 15.8873 50.1616 15.626C50.5162 15.3647 50.7916 15.024 50.9876 14.604C51.1929 14.184 51.2956 13.7453 51.2956 13.288C51.2956 12.7933 51.1836 12.3407 50.9596 11.93C50.7449 11.5193 50.4462 11.1927 50.0636 10.95C49.6902 10.698 49.2656 10.572 48.7896 10.572C48.5002 10.572 48.1922 10.6467 47.8656 10.796C47.5482 10.9453 47.2682 11.146 47.0256 11.398C46.7922 11.6407 46.6429 11.9113 46.5776 12.21L46.5776 14.296C46.7829 14.7813 47.0956 15.192 47.5156 15.528C47.9449 15.8547 48.4069 16.018 48.9016 16.018ZM57.3022 17.082C56.5742 17.082 55.9302 16.9093 55.3702 16.564C54.8102 16.2187 54.3716 15.7567 54.0542 15.178C53.7369 14.5993 53.5782 13.9693 53.5782 13.288C53.5782 12.5973 53.7369 11.9673 54.0542 11.398C54.3716 10.8287 54.8102 10.3713 55.3702 10.026C55.9396 9.68067 56.5882 9.508 57.3162 9.508C58.0536 9.508 58.6929 9.68533 59.2342 10.04C59.7849 10.3853 60.2096 10.8427 60.5082 11.412C60.8162 11.972 60.9702 12.5787 60.9702 13.232C60.9702 13.4373 60.9609 13.596 60.9422 13.708L54.8802 13.708C54.9176 14.184 55.0482 14.6087 55.2722 14.982C55.5056 15.346 55.8042 15.6353 56.1682 15.85C56.5322 16.0553 56.9242 16.158 57.3442 16.158C57.7922 16.158 58.2122 16.046 58.6042 15.822C59.0056 15.598 59.2809 15.304 59.4302 14.94L60.4942 15.234C60.2609 15.7753 59.8549 16.2187 59.2762 16.564C58.6976 16.9093 58.0396 17.082 57.3022 17.082ZM54.8382 12.854L59.8222 12.854C59.7849 12.378 59.6496 11.958 59.4162 11.594C59.1829 11.23 58.8842 10.9453 58.5202 10.74C58.1562 10.5347 57.7549 10.432 57.3162 10.432C56.8869 10.432 56.4902 10.5347 56.1262 10.74C55.7622 10.9453 55.4636 11.23 55.2302 11.594C55.0062 11.958 54.8756 12.378 54.8382 12.854ZM61.8357 16.942L64.5237 13.176L62.0737 9.634L63.4597 9.634L65.5597 12.672L66.3437 12.672L66.3437 9.634L67.6037 9.634L67.6037 12.672L68.4157 12.672L70.4737 9.634L71.8737 9.634L69.4237 13.176L72.1257 16.942L70.7117 16.942L68.4157 13.75L67.6037 13.75L67.6037 16.942L66.3437 16.942L66.3437 13.75L65.5597 13.75L63.2497 16.942L61.8357 16.942ZM73.6053 8.262L73.6053 6.722L74.8373 6.722L74.8373 8.262L73.6053 8.262ZM73.6053 16.942L73.6053 9.634L74.8373 9.634L74.8373 16.942L73.6053 16.942ZM76.7339 11.258L76.7339 9.69L77.7559 9.69L77.7559 11.258L76.7339 11.258ZM76.7339 16.942L76.7339 15.374L77.7559 15.374L77.7559 16.942L76.7339 16.942Z" fill="#282B22" fill-opacity="1.000000" fill-rule="evenodd"/>
	</g>
</svg>
