<svg width="91.507996" height="16.861328" viewBox="0 0 91.508 16.8613" fill="none" xmlns="http://www.w3.org/2000/svg" xmlns:xlink="http://www.w3.org/1999/xlink">
	<desc>
			Created with Pixso.
	</desc>
	<defs/>
	<g opacity="0.500000">
		<path id="Vector" d="M0.000549316 0.5625C0.876831 0.625 0.983948 0.845703 0.983948 1.12695L0.983948 15.7344C0.983948 16.0156 0.876221 16.2334 0 16.2959L0 16.6758L7.22876 16.6758L7.22876 16.2959C6.35138 16.2334 6.24817 16.0156 6.24817 15.7344L6.24817 1.12695C6.24817 0.845703 6.35138 0.625 7.22876 0.5625L7.22876 0.185547L0.000549316 0.185547L0.000549316 0.5625ZM23.9492 0.5625C24.4041 0.594727 24.6846 0.750977 24.6846 1.12695L24.6846 9.49512C22.2303 7.08105 16.1634 1.31641 16.1634 0.96875C16.1634 0.78418 16.3378 0.594727 17.144 0.5625L17.144 0.185547L8.69006 0.185547L8.69006 0.5625C9.56744 0.625 9.6712 0.845703 9.6712 1.12695L9.6712 15.7344C9.6712 16.0156 9.56744 16.2334 8.69006 16.2959L8.69006 16.6758L15.3572 16.6758L15.3572 16.2959C14.4777 16.2334 14.3733 16.0156 14.3733 15.7344L14.3733 5.89062C23.6322 15.1396 24.5113 15.5459 24.5113 15.9531C24.5113 16.1729 24.334 16.2969 23.7018 16.2969L23.7018 16.6768L30.3679 16.6768L30.3679 16.2969C29.491 16.2344 29.3878 16.0156 29.3878 15.7354L29.3878 1.12695C29.3878 0.845703 29.491 0.625 30.3679 0.5625L30.3679 0.185547L23.9492 0.185547L23.9492 0.5625ZM52.5242 8.43066C52.5242 2.94434 47.5455 0 41.5806 0C35.6163 0 30.6388 2.94434 30.6388 8.43066C30.6388 13.915 35.6163 16.8613 41.5806 16.8613C47.5455 16.8613 52.5242 13.915 52.5242 8.43066ZM41.5806 13.0371C38.5328 13.0371 35.8273 11.3789 35.8273 8.43164C35.8273 5.48438 38.5328 3.82324 41.5806 3.82324C44.6335 3.82324 47.3329 5.48535 47.3329 8.43164C47.3329 11.3789 44.6335 13.0371 41.5806 13.0371ZM90.5263 15.3584C88.3514 10.5938 84.0386 1.21973 84.0386 0.96875C84.0386 0.658203 84.2849 0.594727 84.6725 0.5625L84.6725 0.185547L75.5118 0.185547L75.5118 0.5625C75.8299 0.594727 76.2147 0.658203 76.2147 0.875977C76.2147 1.05078 71.1429 12.8672 70.1376 15.2002L63.8446 8.08398L70.2998 0.939453C70.4748 0.750977 70.7912 0.594727 71.176 0.5625L71.176 0.185547L63.1445 0.185547L63.1445 0.5625C63.4261 0.5625 63.8811 0.625 63.8811 0.96875C63.8811 1.25293 61.1783 3.91797 60.6538 4.54395C60.3021 4.10742 57.4254 1.1875 57.4254 0.96875C57.4254 0.658203 57.707 0.594727 58.2686 0.5625L58.2686 0.185547L50.0609 0.185547L50.0609 0.5625C50.2684 0.5625 50.5484 0.625 50.8636 0.96875L57.3889 8.30566L50.3739 15.7646C50.0216 16.1387 49.8129 16.2959 49.5684 16.2959L49.5684 16.6758L57.6683 16.6758L57.6683 16.2959C57.3878 16.2959 56.8279 16.2959 56.8279 15.9531C56.8279 15.5166 60.0906 12.4746 60.5792 11.8467C62.054 13.5713 64.0539 15.7969 64.0539 16.1387C64.0539 16.2959 63.7364 16.2959 63.3885 16.2959L63.3885 16.6758L75.2661 16.6758L75.2661 16.2959C74.7753 16.2959 74.6345 16.1719 74.6345 15.9854C74.6345 15.7969 74.8481 15.3906 75.7575 13.0986L84.0695 13.0986C84.2103 13.5078 85.2638 15.7969 85.2638 15.9209C85.2638 16.1113 85.0894 16.2637 84.5979 16.2959L84.5979 16.6758L91.508 16.6758L91.508 16.2959C91.0884 16.2959 90.8786 16.1113 90.5263 15.3584ZM76.6354 10.5938L79.7573 3.13281L83.1607 10.5938L76.6354 10.5938Z" fill="#282B22" fill-opacity="1.000000" fill-rule="nonzero"/>
	</g>
</svg>
