<svg width="190.000000" height="22.000000" viewBox="0 0 190 22" fill="none" xmlns="http://www.w3.org/2000/svg" xmlns:xlink="http://www.w3.org/1999/xlink">
	<desc>
			Created with Pixso.
	</desc>
	<defs>
		<clipPath id="clip228_213">
			<rect id="phone (1) 1" width="22.000000" height="22.000000" fill="white" fill-opacity="0"/>
		</clipPath>
	</defs>
	<path id="+380 67661 5415" d="M39.64 12.84L35.67 12.84L35.67 17.03L33.92 17.03L33.92 12.84L29.97 12.84L29.97 11.22L33.92 11.22L33.92 7.04L35.67 7.04L35.67 11.22L39.64 11.22L39.64 12.84ZM41.7816 8.3C41.8816 7.62 42.0682 7.02333 42.3416 6.51C42.6216 5.99667 42.9716 5.57 43.3916 5.23C43.8116 4.88333 44.2916 4.62333 44.8316 4.45C45.3782 4.27 45.9682 4.18 46.6016 4.18C47.2416 4.18 47.8216 4.27333 48.3416 4.46C48.8682 4.64 49.3182 4.89333 49.6916 5.22C50.0716 5.54667 50.3616 5.93667 50.5616 6.39C50.7682 6.84333 50.8716 7.34 50.8716 7.88C50.8716 8.34 50.8149 8.74667 50.7016 9.1C50.5949 9.44667 50.4382 9.75333 50.2316 10.02C50.0316 10.2867 49.7849 10.51 49.4916 10.69C49.1982 10.87 48.8682 11.02 48.5016 11.14C49.3949 11.4 50.0649 11.8167 50.5116 12.39C50.9582 12.9567 51.1816 13.67 51.1816 14.53C51.1816 15.2233 51.0516 15.84 50.7916 16.38C50.5316 16.92 50.1782 17.3767 49.7316 17.75C49.2916 18.1233 48.7749 18.41 48.1816 18.61C47.5949 18.8033 46.9716 18.9 46.3116 18.9C45.5716 18.9 44.9316 18.8133 44.3916 18.64C43.8516 18.46 43.3849 18.2067 42.9916 17.88C42.6049 17.5467 42.2816 17.1467 42.0216 16.68C41.7616 16.2133 41.5416 15.69 41.3616 15.11L42.2916 14.72C42.5382 14.6133 42.7716 14.5833 42.9916 14.63C43.2182 14.6767 43.3816 14.8 43.4816 15C43.5882 15.2133 43.7082 15.4433 43.8416 15.69C43.9749 15.93 44.1449 16.1533 44.3516 16.36C44.5649 16.56 44.8249 16.73 45.1316 16.87C45.4449 17.0033 45.8282 17.07 46.2816 17.07C46.7416 17.07 47.1416 16.9967 47.4816 16.85C47.8282 16.6967 48.1149 16.5033 48.3416 16.27C48.5749 16.03 48.7482 15.7633 48.8616 15.47C48.9749 15.1767 49.0316 14.8867 49.0316 14.6C49.0316 14.24 48.9882 13.91 48.9016 13.61C48.8149 13.3033 48.6449 13.0433 48.3916 12.83C48.1449 12.6167 47.7916 12.45 47.3316 12.33C46.8782 12.2033 46.2816 12.14 45.5416 12.14L45.5416 10.59C46.1482 10.5833 46.6582 10.5233 47.0716 10.41C47.4916 10.29 47.8249 10.13 48.0716 9.93C48.3249 9.72333 48.5049 9.47667 48.6116 9.19C48.7249 8.90333 48.7816 8.59 48.7816 8.25C48.7816 7.88333 48.7249 7.56 48.6116 7.28C48.4982 7 48.3382 6.76667 48.1316 6.58C47.9316 6.38667 47.6916 6.24333 47.4116 6.15C47.1316 6.05667 46.8216 6.01 46.4816 6.01C46.1549 6.01 45.8516 6.05667 45.5716 6.15C45.2982 6.24333 45.0516 6.37333 44.8316 6.54C44.6182 6.70667 44.4382 6.90667 44.2916 7.14C44.1449 7.36667 44.0382 7.61667 43.9716 7.89C43.8782 8.16333 43.7516 8.34667 43.5916 8.44C43.4382 8.53333 43.2116 8.55333 42.9116 8.5L41.7816 8.3ZM58.0031 17.2C58.4365 17.2 58.8231 17.14 59.1631 17.02C59.5031 16.8933 59.7865 16.72 60.0131 16.5C60.2465 16.2733 60.4231 16.0067 60.5431 15.7C60.6631 15.3933 60.7231 15.06 60.7231 14.7C60.7231 14.26 60.6531 13.88 60.5131 13.56C60.3798 13.24 60.1898 12.9767 59.9431 12.77C59.7031 12.5567 59.4165 12.4 59.0831 12.3C58.7498 12.1933 58.3898 12.14 58.0031 12.14C57.6165 12.14 57.2565 12.1933 56.9231 12.3C56.5898 12.4 56.2998 12.5567 56.0531 12.77C55.8131 12.9767 55.6231 13.24 55.4831 13.56C55.3498 13.88 55.2831 14.26 55.2831 14.7C55.2831 15.06 55.3431 15.3933 55.4631 15.7C55.5831 16.0067 55.7565 16.2733 55.9831 16.5C56.2165 16.72 56.5031 16.8933 56.8431 17.02C57.1831 17.14 57.5698 17.2 58.0031 17.2ZM58.0031 5.83C57.6098 5.83 57.2631 5.89 56.9631 6.01C56.6698 6.13 56.4265 6.29 56.2331 6.49C56.0398 6.69 55.8931 6.92667 55.7931 7.2C55.6998 7.46667 55.6531 7.75 55.6531 8.05C55.6531 8.35 55.6931 8.64333 55.7731 8.93C55.8598 9.21667 55.9931 9.47333 56.1731 9.7C56.3598 9.92 56.6031 10.0967 56.9031 10.23C57.2031 10.3633 57.5698 10.43 58.0031 10.43C58.4365 10.43 58.8031 10.3633 59.1031 10.23C59.4031 10.0967 59.6431 9.92 59.8231 9.7C60.0098 9.47333 60.1431 9.21667 60.2231 8.93C60.3098 8.64333 60.3531 8.35 60.3531 8.05C60.3531 7.75 60.3031 7.46667 60.2031 7.2C60.1098 6.92667 59.9631 6.69 59.7631 6.49C59.5698 6.29 59.3265 6.13 59.0331 6.01C58.7398 5.89 58.3965 5.83 58.0031 5.83ZM60.2731 11.23C61.1598 11.5033 61.8231 11.9367 62.2631 12.53C62.7098 13.1233 62.9331 13.86 62.9331 14.74C62.9331 15.3733 62.8131 15.9467 62.5731 16.46C62.3331 16.9733 61.9965 17.41 61.5631 17.77C61.1298 18.13 60.6098 18.41 60.0031 18.61C59.4031 18.8033 58.7365 18.9 58.0031 18.9C57.2698 18.9 56.5998 18.8033 55.9931 18.61C55.3931 18.41 54.8765 18.13 54.4431 17.77C54.0098 17.41 53.6731 16.9733 53.4331 16.46C53.1931 15.9467 53.0731 15.3733 53.0731 14.74C53.0731 13.86 53.2931 13.1233 53.7331 12.53C54.1798 11.9367 54.8465 11.5033 55.7331 11.23C55.0131 10.9433 54.4698 10.5267 54.1031 9.98C53.7431 9.43333 53.5631 8.77667 53.5631 8.01C53.5631 7.47 53.6698 6.96667 53.8831 6.5C54.0965 6.03333 54.3965 5.63 54.7831 5.29C55.1765 4.94333 55.6465 4.67333 56.1931 4.48C56.7398 4.28 57.3431 4.18 58.0031 4.18C58.6631 4.18 59.2631 4.28 59.8031 4.48C60.3498 4.67333 60.8165 4.94333 61.2031 5.29C61.5965 5.63 61.8998 6.03333 62.1131 6.5C62.3331 6.96667 62.4431 7.47 62.4431 8.01C62.4431 8.77667 62.2598 9.43333 61.8931 9.98C61.5331 10.5267 60.9931 10.9433 60.2731 11.23ZM74.8547 11.54C74.8547 12.8 74.718 13.89 74.4447 14.81C74.178 15.73 73.808 16.4933 73.3347 17.1C72.8614 17.7067 72.3047 18.1567 71.6647 18.45C71.0247 18.7433 70.3347 18.89 69.5947 18.89C68.8547 18.89 68.1647 18.7433 67.5247 18.45C66.8847 18.1567 66.328 17.7067 65.8547 17.1C65.388 16.4933 65.0214 15.73 64.7547 14.81C64.488 13.89 64.3547 12.8 64.3547 11.54C64.3547 10.28 64.488 9.19 64.7547 8.27C65.0214 7.34333 65.388 6.58 65.8547 5.98C66.328 5.37333 66.8847 4.92333 67.5247 4.63C68.1647 4.33 68.8547 4.18 69.5947 4.18C70.3347 4.18 71.0247 4.33 71.6647 4.63C72.3047 4.92333 72.8614 5.37333 73.3347 5.98C73.808 6.58 74.178 7.34333 74.4447 8.27C74.718 9.19 74.8547 10.28 74.8547 11.54ZM72.6347 11.54C72.6347 10.4733 72.548 9.58667 72.3747 8.88C72.208 8.16667 71.9847 7.59667 71.7047 7.17C71.4247 6.74333 71.1014 6.44 70.7347 6.26C70.368 6.08 69.988 5.99 69.5947 5.99C69.1947 5.99 68.8114 6.08 68.4447 6.26C68.0847 6.44 67.7647 6.74333 67.4847 7.17C67.2047 7.59667 66.9814 8.16667 66.8147 8.88C66.648 9.58667 66.5647 10.4733 66.5647 11.54C66.5647 12.6067 66.648 13.4967 66.8147 14.21C66.9814 14.9167 67.2047 15.4833 67.4847 15.91C67.7647 16.3367 68.0847 16.64 68.4447 16.82C68.8114 17 69.1947 17.09 69.5947 17.09C69.988 17.09 70.368 17 70.7347 16.82C71.1014 16.64 71.4247 16.3367 71.7047 15.91C71.9847 15.4833 72.208 14.9167 72.3747 14.21C72.548 13.4967 72.6347 12.6067 72.6347 11.54ZM86.1667 17.12C86.6001 17.12 86.9967 17.05 87.3567 16.91C87.7167 16.7633 88.0234 16.5633 88.2767 16.31C88.5367 16.0567 88.7367 15.7567 88.8767 15.41C89.0167 15.0633 89.0867 14.6867 89.0867 14.28C89.0867 13.84 89.0167 13.4467 88.8767 13.1C88.7434 12.7467 88.55 12.45 88.2967 12.21C88.05 11.97 87.7501 11.7867 87.3967 11.66C87.05 11.5267 86.6667 11.46 86.2467 11.46C85.8134 11.46 85.4201 11.5333 85.0667 11.68C84.72 11.8267 84.4234 12.0267 84.1767 12.28C83.9301 12.5333 83.7401 12.83 83.6067 13.17C83.4734 13.51 83.4067 13.87 83.4067 14.25C83.4067 14.6767 83.4667 15.0667 83.5867 15.42C83.7067 15.7733 83.8834 16.0767 84.1167 16.33C84.3501 16.5767 84.6367 16.77 84.9767 16.91C85.3234 17.05 85.72 17.12 86.1667 17.12ZM85.3767 9.64C85.2701 9.77333 85.1667 9.9 85.0667 10.02C84.9734 10.14 84.8801 10.26 84.7867 10.38C85.0934 10.2067 85.4301 10.07 85.7967 9.97C86.1634 9.87 86.5567 9.82 86.9767 9.82C87.5367 9.82 88.0734 9.91333 88.5867 10.1C89.1001 10.28 89.55 10.5533 89.9367 10.92C90.33 11.28 90.6434 11.73 90.8767 12.27C91.1101 12.8033 91.2267 13.42 91.2267 14.12C91.2267 14.7867 91.1034 15.41 90.8567 15.99C90.6167 16.57 90.2767 17.0767 89.8367 17.51C89.3967 17.9367 88.8667 18.2767 88.2467 18.53C87.6334 18.7767 86.9534 18.9 86.2067 18.9C85.4601 18.9 84.7867 18.78 84.1867 18.54C83.5867 18.3 83.0734 17.9633 82.6467 17.53C82.2267 17.09 81.9034 16.5633 81.6767 15.95C81.4501 15.3367 81.3367 14.6533 81.3367 13.9C81.3367 13.2467 81.4767 12.5633 81.7567 11.85C82.0367 11.1367 82.47 10.3867 83.0567 9.6L86.5967 4.85C86.7034 4.71 86.8567 4.59 87.0567 4.49C87.2634 4.39 87.4934 4.34 87.7467 4.34L89.6467 4.34L85.3767 9.64ZM102.858 4.34L102.858 5.29C102.858 5.57 102.828 5.79667 102.768 5.97C102.708 6.14333 102.648 6.29 102.588 6.41L96.8983 17.99C96.7983 18.2033 96.6549 18.3833 96.4683 18.53C96.2883 18.67 96.0483 18.74 95.7483 18.74L94.1983 18.74L99.9983 7.35C100.105 7.14333 100.212 6.95667 100.318 6.79C100.425 6.62333 100.545 6.46333 100.678 6.31L93.4883 6.31C93.3549 6.31 93.2383 6.26 93.1383 6.16C93.0383 6.05333 92.9883 5.93333 92.9883 5.8L92.9883 4.34L102.858 4.34ZM109.37 17.12C109.803 17.12 110.2 17.05 110.56 16.91C110.92 16.7633 111.227 16.5633 111.48 16.31C111.74 16.0567 111.94 15.7567 112.08 15.41C112.22 15.0633 112.29 14.6867 112.29 14.28C112.29 13.84 112.22 13.4467 112.08 13.1C111.947 12.7467 111.753 12.45 111.5 12.21C111.253 11.97 110.953 11.7867 110.6 11.66C110.253 11.5267 109.87 11.46 109.45 11.46C109.017 11.46 108.623 11.5333 108.27 11.68C107.923 11.8267 107.627 12.0267 107.38 12.28C107.133 12.5333 106.943 12.83 106.81 13.17C106.677 13.51 106.61 13.87 106.61 14.25C106.61 14.6767 106.67 15.0667 106.79 15.42C106.91 15.7733 107.087 16.0767 107.32 16.33C107.553 16.5767 107.84 16.77 108.18 16.91C108.527 17.05 108.923 17.12 109.37 17.12ZM108.58 9.64C108.473 9.77333 108.37 9.9 108.27 10.02C108.177 10.14 108.083 10.26 107.99 10.38C108.297 10.2067 108.633 10.07 109 9.97C109.367 9.87 109.76 9.82 110.18 9.82C110.74 9.82 111.277 9.91333 111.79 10.1C112.303 10.28 112.753 10.5533 113.14 10.92C113.533 11.28 113.847 11.73 114.08 12.27C114.313 12.8033 114.43 13.42 114.43 14.12C114.43 14.7867 114.307 15.41 114.06 15.99C113.82 16.57 113.48 17.0767 113.04 17.51C112.6 17.9367 112.07 18.2767 111.45 18.53C110.837 18.7767 110.157 18.9 109.41 18.9C108.663 18.9 107.99 18.78 107.39 18.54C106.79 18.3 106.277 17.9633 105.85 17.53C105.43 17.09 105.107 16.5633 104.88 15.95C104.653 15.3367 104.54 14.6533 104.54 13.9C104.54 13.2467 104.68 12.5633 104.96 11.85C105.24 11.1367 105.673 10.3867 106.26 9.6L109.8 4.85C109.907 4.71 110.06 4.59 110.26 4.49C110.467 4.39 110.697 4.34 110.95 4.34L112.85 4.34L108.58 9.64ZM120.971 17.12C121.405 17.12 121.801 17.05 122.161 16.91C122.521 16.7633 122.828 16.5633 123.081 16.31C123.341 16.0567 123.541 15.7567 123.681 15.41C123.821 15.0633 123.891 14.6867 123.891 14.28C123.891 13.84 123.821 13.4467 123.681 13.1C123.548 12.7467 123.355 12.45 123.101 12.21C122.855 11.97 122.555 11.7867 122.201 11.66C121.855 11.5267 121.471 11.46 121.051 11.46C120.618 11.46 120.225 11.5333 119.871 11.68C119.525 11.8267 119.228 12.0267 118.981 12.28C118.735 12.5333 118.545 12.83 118.411 13.17C118.278 13.51 118.211 13.87 118.211 14.25C118.211 14.6767 118.271 15.0667 118.391 15.42C118.511 15.7733 118.688 16.0767 118.921 16.33C119.155 16.5767 119.441 16.77 119.781 16.91C120.128 17.05 120.525 17.12 120.971 17.12ZM120.181 9.64C120.075 9.77333 119.971 9.9 119.871 10.02C119.778 10.14 119.685 10.26 119.591 10.38C119.898 10.2067 120.235 10.07 120.601 9.97C120.968 9.87 121.361 9.82 121.781 9.82C122.341 9.82 122.878 9.91333 123.391 10.1C123.905 10.28 124.355 10.5533 124.741 10.92C125.135 11.28 125.448 11.73 125.681 12.27C125.915 12.8033 126.031 13.42 126.031 14.12C126.031 14.7867 125.908 15.41 125.661 15.99C125.421 16.57 125.081 17.0767 124.641 17.51C124.201 17.9367 123.671 18.2767 123.051 18.53C122.438 18.7767 121.758 18.9 121.011 18.9C120.265 18.9 119.591 18.78 118.991 18.54C118.391 18.3 117.878 17.9633 117.451 17.53C117.031 17.09 116.708 16.5633 116.481 15.95C116.255 15.3367 116.141 14.6533 116.141 13.9C116.141 13.2467 116.281 12.5633 116.561 11.85C116.841 11.1367 117.275 10.3867 117.861 9.6L121.401 4.85C121.508 4.71 121.661 4.59 121.861 4.49C122.068 4.39 122.298 4.34 122.551 4.34L124.451 4.34L120.181 9.64ZM137.063 17.11L137.063 18.74L129.213 18.74L129.213 17.11L132.213 17.11L132.213 8.09C132.213 7.77 132.223 7.44333 132.243 7.11L129.933 9.06C129.833 9.14 129.73 9.19333 129.623 9.22C129.523 9.24 129.426 9.24 129.333 9.22C129.246 9.2 129.166 9.17 129.093 9.13C129.026 9.08333 128.973 9.03333 128.933 8.98L128.263 8.04L132.603 4.31L134.353 4.31L134.353 17.11L137.063 17.11ZM147.225 9.66C147.572 9.58667 147.902 9.53333 148.215 9.5C148.535 9.46667 148.842 9.45 149.135 9.45C149.888 9.45 150.552 9.56333 151.125 9.79C151.705 10.01 152.188 10.3167 152.575 10.71C152.968 11.1033 153.262 11.5667 153.455 12.1C153.655 12.6267 153.755 13.2 153.755 13.82C153.755 14.5867 153.622 15.2833 153.355 15.91C153.088 16.5367 152.718 17.0733 152.245 17.52C151.772 17.96 151.212 18.3 150.565 18.54C149.925 18.78 149.232 18.9 148.485 18.9C148.045 18.9 147.625 18.8567 147.225 18.77C146.832 18.6833 146.462 18.5667 146.115 18.42C145.768 18.2667 145.448 18.0933 145.155 17.9C144.862 17.7 144.598 17.4933 144.365 17.28L145.025 16.36C145.165 16.16 145.352 16.06 145.585 16.06C145.732 16.06 145.892 16.1133 146.065 16.22C146.238 16.3267 146.438 16.4433 146.665 16.57C146.898 16.69 147.172 16.8033 147.485 16.91C147.798 17.0167 148.172 17.07 148.605 17.07C149.078 17.07 149.502 16.9933 149.875 16.84C150.248 16.6867 150.562 16.4733 150.815 16.2C151.075 15.92 151.272 15.5867 151.405 15.2C151.538 14.8133 151.605 14.39 151.605 13.93C151.605 13.51 151.542 13.1333 151.415 12.8C151.295 12.4667 151.112 12.1833 150.865 11.95C150.625 11.7167 150.322 11.54 149.955 11.42C149.588 11.2933 149.165 11.23 148.685 11.23C148.332 11.23 147.968 11.26 147.595 11.32C147.228 11.38 146.855 11.4733 146.475 11.6L145.135 11.22L146.315 4.34L153.285 4.34L153.285 5.27C153.285 5.57667 153.188 5.82667 152.995 6.02C152.802 6.21333 152.478 6.31 152.025 6.31L147.805 6.31L147.225 9.66ZM162.187 13.42L162.187 8.16C162.187 7.74 162.217 7.28 162.277 6.78L157.437 13.42L162.187 13.42ZM166.047 13.42L166.047 14.66C166.047 14.78 166.007 14.8833 165.927 14.97C165.853 15.0567 165.74 15.1 165.587 15.1L164.057 15.1L164.057 18.74L162.187 18.74L162.187 15.1L155.957 15.1C155.803 15.1 155.67 15.0567 155.557 14.97C155.45 14.8767 155.38 14.7633 155.347 14.63L155.127 13.53L162.037 4.33L164.057 4.33L164.057 13.42L166.047 13.42ZM176.848 17.11L176.848 18.74L168.998 18.74L168.998 17.11L171.998 17.11L171.998 8.09C171.998 7.77 172.008 7.44333 172.028 7.11L169.718 9.06C169.618 9.14 169.515 9.19333 169.408 9.22C169.308 9.24 169.211 9.24 169.118 9.22C169.031 9.2 168.951 9.17 168.878 9.13C168.811 9.08333 168.758 9.03333 168.718 8.98L168.048 8.04L172.388 4.31L174.138 4.31L174.138 17.11L176.848 17.11ZM182.03 9.66C182.376 9.58667 182.706 9.53333 183.02 9.5C183.34 9.46667 183.646 9.45 183.94 9.45C184.693 9.45 185.356 9.56333 185.93 9.79C186.51 10.01 186.993 10.3167 187.38 10.71C187.773 11.1033 188.066 11.5667 188.26 12.1C188.46 12.6267 188.56 13.2 188.56 13.82C188.56 14.5867 188.426 15.2833 188.16 15.91C187.893 16.5367 187.523 17.0733 187.05 17.52C186.576 17.96 186.016 18.3 185.37 18.54C184.73 18.78 184.036 18.9 183.29 18.9C182.85 18.9 182.43 18.8567 182.03 18.77C181.636 18.6833 181.266 18.5667 180.92 18.42C180.573 18.2667 180.253 18.0933 179.96 17.9C179.666 17.7 179.403 17.4933 179.17 17.28L179.83 16.36C179.97 16.16 180.156 16.06 180.39 16.06C180.536 16.06 180.696 16.1133 180.87 16.22C181.043 16.3267 181.243 16.4433 181.47 16.57C181.703 16.69 181.976 16.8033 182.29 16.91C182.603 17.0167 182.976 17.07 183.41 17.07C183.883 17.07 184.306 16.9933 184.68 16.84C185.053 16.6867 185.366 16.4733 185.62 16.2C185.88 15.92 186.076 15.5867 186.21 15.2C186.343 14.8133 186.41 14.39 186.41 13.93C186.41 13.51 186.346 13.1333 186.22 12.8C186.1 12.4667 185.916 12.1833 185.67 11.95C185.43 11.7167 185.126 11.54 184.76 11.42C184.393 11.2933 183.97 11.23 183.49 11.23C183.136 11.23 182.773 11.26 182.4 11.32C182.033 11.38 181.66 11.4733 181.28 11.6L179.94 11.22L181.12 4.34L188.09 4.34L188.09 5.27C188.09 5.57667 187.993 5.82667 187.8 6.02C187.606 6.21333 187.283 6.31 186.83 6.31L182.61 6.31L182.03 9.66Z" fill="#3D4A39" fill-opacity="1.000000" fill-rule="evenodd"/>
	<rect id="phone (1) 1" width="22.000000" height="22.000000" fill="#FFFFFF" fill-opacity="0"/>
	<g clip-path="url(#clip228_213)">
		<path id="Vector" d="M14.6667 0.916504L7.33337 0.916504C5.81628 0.916504 4.58337 2.14941 4.58337 3.6665L4.58337 18.333C4.58337 19.8501 5.81628 21.083 7.33337 21.083L14.6667 21.083C16.1838 21.083 17.4167 19.8501 17.4167 18.333L17.4167 3.6665C17.4167 2.14941 16.1838 0.916504 14.6667 0.916504ZM12.8334 19.25L9.16675 19.25L9.16675 18.333L12.8334 18.333L12.8334 19.25ZM15.8125 16.5L6.1875 16.5L6.1875 3.6665L15.8125 3.6665L15.8125 16.5Z" fill="#3D4A39" fill-opacity="1.000000" fill-rule="nonzero"/>
	</g>
</svg>
