<svg width="310.000000" height="110.000000" viewBox="0 0 310 110" fill="none" xmlns="http://www.w3.org/2000/svg" xmlns:xlink="http://www.w3.org/1999/xlink">
	<desc>
			Created with Pixso.
	</desc>
	<defs>
		<filter id="filter_227_88_dd" x="0.000000" y="0.000000" width="310.000000" height="110.000000" filterUnits="userSpaceOnUse" color-interpolation-filters="sRGB">
			<feFlood flood-opacity="0" result="BackgroundImageFix"/>
			<feColorMatrix in="SourceAlpha" type="matrix" values="0 0 0 0 0 0 0 0 0 0 0 0 0 0 0 0 0 0 127 0" result="hardAlpha"/>
			<feOffset dx="0" dy="20"/>
			<feGaussianBlur stdDeviation="8.33333"/>
			<feComposite in2="hardAlpha" operator="out" k2="-1" k3="1"/>
			<feColorMatrix type="matrix" values="0 0 0 0 0 0 0 0 0 0 0 0 0 0 0 0 0 0 0.051 0"/>
			<feBlend mode="normal" in2="BackgroundImageFix" result="effect_dropShadow_1"/>
			<feBlend mode="normal" in="SourceGraphic" in2="effect_dropShadow_1" result="shape"/>
		</filter>
	</defs>
	<g filter="url(#filter_227_88_dd)">
		<rect id="Кнопка" width="260.000000" height="60.000000" transform="translate(25.000000 5.000000)" fill="#AE7B3C" fill-opacity="1.000000"/>
		<path id="Хочу подарунок" d="M93.868 29.288L96.684 33.48L99.484 29.288L101.884 29.288L97.948 35.048L101.756 40.648L99.356 40.648L96.684 36.616L93.996 40.648L91.58 40.648L95.388 35.048L91.452 29.288L93.868 29.288ZM106.692 40.808C105.774 40.808 104.985 40.6107 104.324 40.216C103.673 39.8107 103.172 39.2773 102.82 38.616C102.468 37.9547 102.292 37.24 102.292 36.472C102.292 35.6933 102.468 34.9733 102.82 34.312C103.182 33.6507 103.689 33.1227 104.34 32.728C105.001 32.3227 105.785 32.12 106.692 32.12C107.598 32.12 108.377 32.3227 109.028 32.728C109.689 33.1227 110.196 33.6507 110.548 34.312C110.9 34.9733 111.076 35.6933 111.076 36.472C111.076 37.24 110.9 37.9547 110.548 38.616C110.196 39.2773 109.689 39.8107 109.028 40.216C108.377 40.6107 107.598 40.808 106.692 40.808ZM104.5 36.472C104.5 36.9627 104.596 37.4 104.788 37.784C104.98 38.1573 105.241 38.4507 105.572 38.664C105.902 38.8773 106.276 38.984 106.692 38.984C107.097 38.984 107.465 38.8773 107.796 38.664C108.126 38.44 108.388 38.1413 108.58 37.768C108.782 37.384 108.884 36.9467 108.884 36.456C108.884 35.976 108.782 35.5493 108.58 35.176C108.388 34.792 108.126 34.4933 107.796 34.28C107.465 34.056 107.097 33.944 106.692 33.944C106.276 33.944 105.902 34.056 105.572 34.28C105.241 34.4933 104.98 34.792 104.788 35.176C104.596 35.5493 104.5 35.9813 104.5 36.472ZM117.195 40.648L117.195 37.64C116.598 37.9067 115.904 38.04 115.115 38.04C114.23 38.04 113.536 37.8053 113.035 37.336C112.534 36.856 112.283 36.1573 112.283 35.24L112.283 32.264L114.427 32.264L114.427 34.952C114.427 35.9227 114.875 36.408 115.771 36.408C116.027 36.408 116.278 36.3813 116.523 36.328C116.779 36.2747 117.003 36.2 117.195 36.104L117.195 32.264L119.355 32.264L119.355 40.648L117.195 40.648ZM122.521 44.264C122.297 44.264 122.068 44.2373 121.833 44.184C121.609 44.1307 121.348 44.0507 121.049 43.944L121.465 42.248C121.785 42.3867 122.068 42.456 122.313 42.456C122.878 42.456 123.284 42.0667 123.529 41.288L123.785 40.6L120.393 32.264L122.617 32.264L124.873 38.456L126.857 32.264L128.905 32.264L125.481 41.848C125.204 42.616 124.798 43.208 124.265 43.624C123.742 44.0507 123.161 44.264 122.521 44.264ZM133.507 40.648L133.507 32.264L141.027 32.264L141.027 40.648L138.883 40.648L138.883 34.136L135.651 34.136L135.651 40.648L133.507 40.648ZM146.848 40.808C145.931 40.808 145.141 40.6107 144.48 40.216C143.829 39.8107 143.328 39.2773 142.976 38.616C142.624 37.9547 142.448 37.24 142.448 36.472C142.448 35.6933 142.624 34.9733 142.976 34.312C143.339 33.6507 143.845 33.1227 144.496 32.728C145.157 32.3227 145.941 32.12 146.848 32.12C147.755 32.12 148.533 32.3227 149.184 32.728C149.845 33.1227 150.352 33.6507 150.704 34.312C151.056 34.9733 151.232 35.6933 151.232 36.472C151.232 37.24 151.056 37.9547 150.704 38.616C150.352 39.2773 149.845 39.8107 149.184 40.216C148.533 40.6107 147.755 40.808 146.848 40.808ZM144.656 36.472C144.656 36.9627 144.752 37.4 144.944 37.784C145.136 38.1573 145.397 38.4507 145.728 38.664C146.059 38.8773 146.432 38.984 146.848 38.984C147.253 38.984 147.621 38.8773 147.952 38.664C148.283 38.44 148.544 38.1413 148.736 37.768C148.939 37.384 149.04 36.9467 149.04 36.456C149.04 35.976 148.939 35.5493 148.736 35.176C148.544 34.792 148.283 34.4933 147.952 34.28C147.621 34.056 147.253 33.944 146.848 33.944C146.432 33.944 146.059 34.056 145.728 34.28C145.397 34.4933 145.136 34.792 144.944 35.176C144.752 35.5493 144.656 35.9813 144.656 36.472ZM151.991 42.68L151.991 38.776L152.215 38.776C152.492 38.776 152.748 38.6693 152.983 38.456C153.218 38.2427 153.41 37.8587 153.559 37.304C153.719 36.7493 153.815 35.9493 153.847 34.904L153.943 32.264L160.231 32.264L160.231 38.776L161.399 38.776L161.399 42.68L159.527 42.68L159.527 40.648L153.879 40.648L153.879 42.68L151.991 42.68ZM154.919 38.776L158.087 38.776L158.087 34.072L155.815 34.072L155.767 35.112C155.724 36.1787 155.634 36.9947 155.495 37.56C155.356 38.1253 155.164 38.5307 154.919 38.776ZM162.212 38.168C162.212 37.624 162.362 37.1493 162.66 36.744C162.97 36.328 163.396 36.008 163.94 35.784C164.484 35.56 165.108 35.448 165.812 35.448C166.164 35.448 166.522 35.48 166.884 35.544C167.247 35.5973 167.562 35.6773 167.828 35.784L167.828 35.336C167.828 34.8027 167.669 34.392 167.349 34.104C167.039 33.816 166.575 33.672 165.956 33.672C165.498 33.672 165.061 33.752 164.645 33.912C164.229 34.072 163.791 34.3067 163.332 34.616L162.645 33.208C163.199 32.8453 163.764 32.5733 164.34 32.392C164.927 32.2107 165.54 32.12 166.18 32.12C167.375 32.12 168.303 32.4187 168.965 33.016C169.637 33.6133 169.973 34.4667 169.973 35.576L169.973 38.248C169.973 38.4827 170.01 38.648 170.085 38.744C170.159 38.8293 170.293 38.8827 170.484 38.904L170.484 40.648C170.293 40.6907 170.117 40.7173 169.956 40.728C169.807 40.7493 169.679 40.76 169.573 40.76C169.146 40.76 168.82 40.664 168.596 40.472C168.372 40.28 168.239 40.0453 168.197 39.768L168.148 39.336C167.775 39.816 167.316 40.184 166.772 40.44C166.239 40.6853 165.69 40.808 165.124 40.808C164.559 40.808 164.058 40.696 163.62 40.472C163.183 40.2373 162.837 39.9227 162.581 39.528C162.335 39.1227 162.212 38.6693 162.212 38.168ZM167.428 38.6C167.695 38.344 167.828 38.0987 167.828 37.864L167.828 37.016C167.274 36.792 166.714 36.68 166.148 36.68C165.583 36.68 165.124 36.8027 164.772 37.048C164.421 37.2827 164.245 37.5973 164.245 37.992C164.245 38.312 164.372 38.6 164.629 38.856C164.884 39.112 165.253 39.24 165.732 39.24C166.052 39.24 166.362 39.1813 166.66 39.064C166.97 38.9467 167.226 38.792 167.428 38.6ZM177 40.808C176.339 40.808 175.763 40.6587 175.272 40.36C174.781 40.0613 174.397 39.6667 174.12 39.176L174.12 44.056L171.976 44.056L171.976 32.264L173.848 32.264L173.848 33.704C174.157 33.2133 174.557 32.8293 175.048 32.552C175.549 32.264 176.115 32.12 176.744 32.12C177.501 32.12 178.173 32.3173 178.76 32.712C179.347 33.096 179.811 33.6187 180.152 34.28C180.493 34.9307 180.664 35.6507 180.664 36.44C180.664 37.2613 180.504 38.0027 180.184 38.664C179.875 39.3147 179.443 39.8373 178.888 40.232C178.344 40.616 177.715 40.808 177 40.808ZM176.28 38.984C176.717 38.984 177.096 38.8667 177.416 38.632C177.747 38.3867 178.003 38.072 178.184 37.688C178.376 37.2933 178.472 36.8773 178.472 36.44C178.472 35.9707 178.371 35.5493 178.168 35.176C177.965 34.792 177.688 34.4933 177.336 34.28C176.995 34.056 176.6 33.944 176.152 33.944C175.747 33.944 175.341 34.0773 174.936 34.344C174.531 34.6107 174.259 34.9467 174.12 35.352L174.12 37.32C174.312 37.7893 174.605 38.184 175 38.504C175.395 38.824 175.821 38.984 176.28 38.984ZM183.083 44.264C182.859 44.264 182.63 44.2373 182.395 44.184C182.171 44.1307 181.91 44.0507 181.611 43.944L182.027 42.248C182.347 42.3867 182.63 42.456 182.875 42.456C183.441 42.456 183.846 42.0667 184.091 41.288L184.347 40.6L180.955 32.264L183.179 32.264L185.435 38.456L187.419 32.264L189.467 32.264L186.043 41.848C185.766 42.616 185.361 43.208 184.827 43.624C184.305 44.0507 183.723 44.264 183.083 44.264ZM190.632 40.648L190.632 32.264L192.776 32.264L192.776 35.464L196.168 35.464L196.168 32.264L198.312 32.264L198.312 40.648L196.168 40.648L196.168 37.256L192.776 37.256L192.776 40.648L190.632 40.648ZM204.145 40.808C203.228 40.808 202.438 40.6107 201.777 40.216C201.126 39.8107 200.625 39.2773 200.273 38.616C199.921 37.9547 199.745 37.24 199.745 36.472C199.745 35.6933 199.921 34.9733 200.273 34.312C200.636 33.6507 201.142 33.1227 201.793 32.728C202.454 32.3227 203.238 32.12 204.145 32.12C205.052 32.12 205.83 32.3227 206.481 32.728C207.142 33.1227 207.649 33.6507 208.001 34.312C208.353 34.9733 208.529 35.6933 208.529 36.472C208.529 37.24 208.353 37.9547 208.001 38.616C207.649 39.2773 207.142 39.8107 206.481 40.216C205.83 40.6107 205.052 40.808 204.145 40.808ZM201.953 36.472C201.953 36.9627 202.049 37.4 202.241 37.784C202.433 38.1573 202.694 38.4507 203.025 38.664C203.356 38.8773 203.729 38.984 204.145 38.984C204.55 38.984 204.918 38.8773 205.249 38.664C205.58 38.44 205.841 38.1413 206.033 37.768C206.236 37.384 206.337 36.9467 206.337 36.456C206.337 35.976 206.236 35.5493 206.033 35.176C205.841 34.792 205.58 34.4933 205.249 34.28C204.918 34.056 204.55 33.944 204.145 33.944C203.729 33.944 203.356 34.056 203.025 34.28C202.694 34.4933 202.433 34.792 202.241 35.176C202.049 35.5493 201.953 35.9813 201.953 36.472ZM209.976 40.648L209.976 32.264L212.12 32.264L212.12 35.432L212.84 35.432L215.112 32.264L217.448 32.264L214.472 36.312L217.768 40.648L215.32 40.648L212.808 37.32L212.12 37.32L212.12 40.648L209.976 40.648Z" fill="#FFFFFF" fill-opacity="1.000000" fill-rule="evenodd"/>
	</g>
</svg>
