<svg width="55.000000" height="55.000000" viewBox="0 0 55 55" fill="none" xmlns="http://www.w3.org/2000/svg" xmlns:xlink="http://www.w3.org/1999/xlink">
	<desc>
			Created with Pixso.
	</desc>
	<defs/>
	<circle id="Ellipse 9" r="27.000000" transform="matrix(-1 -1 8.74228e-08 -8.74228e-08 27.5 27.5)" stroke="#3D4A39" stroke-opacity="1.000000" stroke-width="1.000000"/>
	<path id="Arrow 3" d="M38 29L18 29L18 27L38 27L38 29ZM19.4142 28L24.364 32.9497C24.7599 33.3457 24.7599 33.9678 24.364 34.3638C23.968 34.7598 23.3457 34.7598 22.9498 34.3638L17.2929 28.707C16.8969 28.311 16.8969 27.689 17.2929 27.293L22.9498 21.6362C23.3457 21.2402 23.968 21.2402 24.364 21.6362C24.7599 22.0322 24.7599 22.6543 24.364 23.0503L19.4142 28Z" fill="#3D4A39" fill-opacity="1.000000" fill-rule="evenodd"/>
</svg>
